<svg width="410" height="352" viewBox="0 0 410 352" fill="none" xmlns="http://www.w3.org/2000/svg">
<path d="M369.793 257.99C293.416 351.466 95.679 355.456 46.1647 303.529C26.4042 282.812 21.181 247.23 13.5193 194.958C9.82841 169.792 9.29543 149.508 8.98896 135.599C7.90967 88.2617 14.532 78.8784 27.3503 65.9636C61.8744 31.1332 129.124 15.9745 180.344 15.1458C183.915 15.0821 187.526 15.1076 191.163 15.2096C251.137 16.918 318.826 40.8097 360.559 91.8569C364.876 97.1223 368.9 102.681 372.618 108.533C410.726 168.479 411.459 206.994 369.793 257.99Z" fill="#DCF8EA"/>
<path d="M350.617 254.764L289.992 260.105V173.594H350.617V254.764Z" fill="#B6CADF"/>
<path d="M37.2266 179.424L47.7276 179.047L69.6628 115.98L61.6268 110.123L37.2266 179.424Z" fill="#98ACC1"/>
<path d="M276.301 110.276L321.397 115.004L362.788 173.594H283.097L276.301 110.276Z" fill="#08305E"/>
<path d="M303.065 164.501L281.242 170.372L241.09 76.6507L255.449 58.9663L303.065 164.501Z" fill="#98ACC1"/>
<path d="M47.7295 179.424L46.5039 250.691L114.148 275.488L114.19 275.558L189.897 269.659L202.265 273.369L289.991 264.094V165.324L249.004 71.1558L158.547 139.034L69.4558 106.246L69.4836 106.148L47.7295 179.424Z" fill="#E2F0FF"/>
<path d="M113.544 275.488L47.8359 253.481V178.573L66.0804 117.584L113.544 174.403V275.488Z" fill="#B6CADF"/>
<path d="M202.679 273.369V170.066V159.55L190.562 173.357V269.659L202.679 273.369Z" fill="#C1D6E8"/>
<path d="M133.395 107.64L166.346 110.067L174.647 168.657L175.399 173.985L193.518 176.258L257.151 55.6191L250.703 58.3387L133.395 107.64Z" fill="#08305E"/>
<path d="M254.668 60.2076L303.065 163.887H307.8L257.147 55.1589L254.668 60.2076Z" fill="#041D35"/>
<path d="M34.1758 177.792L36.9473 179.549L62.977 112.954L98.7976 173.357L175.397 173.985L174.645 168.657L167.848 109.676L133.392 107.543L61.9325 102.201H61.9186L61.7793 102.285L61.5843 102.87L34.1758 177.792Z" fill="#08305E"/>
<path d="M229.367 188.168V255.503L259.004 253.494L261.177 253.425L261.483 188.168H229.367Z" fill="#98ACC1"/>
<path d="M128.477 235.922L175.522 234.095V189.479L128.477 188.308V235.922Z" fill="white"/>
<path d="M154.66 230.036L172.125 229.464V193.454L154.66 193.119V230.036Z" fill="#DCF8EA"/>
<path d="M131.875 230.734L151.275 230.134V193.05L131.875 192.687V230.734Z" fill="#DCF8EA"/>
<path d="M298.525 232.003L342.368 230.329V189.396L298.316 188.308L298.525 232.003Z" fill="white"/>
<path d="M322.62 226.633L338.692 226.103L338.678 193.05L322.551 192.743L322.62 226.633Z" fill="#DCF8EA"/>
<path d="M302.231 227.261L319.529 226.717L319.445 192.687L302.078 192.338L302.231 227.261Z" fill="#DCF8EA"/>
<path d="M53.8963 224.569L100.831 232.547V187.178L53.2695 187.443L53.8963 224.569Z" fill="white"/>
<path d="M76.5129 224.123L96.4565 227.136L96.4008 191.321L76.2344 191.111L76.5129 224.123Z" fill="#DCF8EA"/>
<path d="M56.8776 221.138L73.4926 223.663L73.1862 191.069L56.418 190.902L56.8776 221.138Z" fill="#DCF8EA"/>
<path d="M258.945 188.168V253.494L261.257 253.425L261.619 188.168H258.945Z" fill="#F3F6FA"/>
<path d="M229.367 255.489V270.719L257.152 278.041L260.257 273.313L271.901 255.614L259.979 253.341L229.367 255.489Z" fill="#F3F6FA"/>
<path d="M229.367 255.489V270.719L257.152 278.041L260.257 273.313L256.428 266.046L238.002 258.195L229.367 255.489Z" fill="#D9DEE5"/>
<path d="M256.523 272.141L249.727 270.537V264.945L238.098 263.564V258.194L273.013 255.489V260.412L282.233 261.667V266.786L289.99 268.264V273.661L256.523 278.041V272.141Z" fill="#F3F6FA"/>
<path d="M256.523 272.141L289.99 268.264V273.661L256.523 278.041V272.141Z" fill="#B2BBC6"/>
<path d="M249.73 264.945L282.236 261.667V266.786L249.73 270.537V264.945Z" fill="#B2BBC6"/>
<path d="M273.013 255.489V260.412L238.098 263.564V258.445L273.013 255.489Z" fill="#B2BBC6"/>
<path d="M257.009 157.081V129.551C257.009 123.916 252.58 119.202 246.953 119.202H242.636C237.009 119.202 232.762 123.916 232.762 129.551V157.081H257.009Z" fill="white"/>
<path d="M242.635 121.141H246.952C251.214 121.141 254.584 125.283 254.584 129.55V154.166H235.184V129.55C235.184 125.269 238.359 121.141 242.635 121.141Z" fill="#DCF8EA"/>
<path d="M34.1758 177.792L36.9473 179.549L62.977 112.954L98.7976 173.357L175.397 173.985L193.516 176.258L257.149 55.6192L250.7 58.3388L250.38 58.9664L190.925 171.223L174.77 168.741H102.809L61.9325 102.438V102.396H61.9186L61.5843 102.926L34.1758 177.792Z" fill="#041D35"/>
<path d="M49.4264 85.699C49.4264 88.0813 47.4995 90.0147 45.1253 90.0147C42.7511 90.0147 40.8242 88.0813 40.8242 85.699V70.0935C40.8242 67.7113 42.7511 65.7778 45.1253 65.7778H60.6781C63.0523 65.7778 64.9792 67.7113 64.9792 70.0935C64.9792 72.4758 63.0523 74.4092 60.6781 74.4092H55.5543C56.5923 77.0586 58.0274 79.3659 59.8306 81.273C62.1695 83.7407 64.4568 84.8801 66.8816 86.088L66.8844 86.0893C67.5038 86.4001 68.1231 86.7108 68.7081 87.0215C75.0565 90.4223 80.6135 95.9463 85.1899 103.456C86.4286 105.493 85.7921 108.151 83.7619 109.394C83.0738 109.826 82.2824 110.033 81.5254 110.033V110.015C80.0802 110.015 78.6694 109.29 77.8608 107.961C74.0931 101.781 69.6543 97.2928 64.665 94.6344C64.279 94.4278 63.8833 94.2308 63.478 94.0291C63.3414 93.9611 63.2038 93.8926 63.065 93.823L63.0373 93.8092C60.3409 92.4651 56.9803 90.7898 53.6026 87.2287C51.9924 85.5318 50.5969 83.6316 49.4264 81.5491V85.699Z" fill="#1EAB66"/>
<path d="M25.3142 211.743C26.996 213.428 26.9984 216.159 25.3195 217.841C23.6407 219.523 20.9133 219.52 19.2315 217.836L8.21466 206.801C6.53289 205.116 6.53049 202.385 8.20931 200.703L19.2068 189.688C20.8856 188.006 23.6131 188.008 25.2948 189.693C26.9766 191.377 26.979 194.109 25.3002 195.791L21.6771 199.42C24.2814 200.558 26.925 201.173 29.5465 201.245C32.9424 201.333 35.3642 200.519 37.9315 199.655L37.9344 199.654C38.5917 199.435 39.249 199.216 39.882 199.022C46.7718 196.93 54.601 196.901 63.1382 198.969C65.4522 199.532 66.8788 201.863 66.3207 204.18C66.1388 204.972 65.7254 205.679 65.1902 206.215L65.178 206.203C64.1561 207.227 62.6467 207.713 61.1365 207.346C54.1094 205.645 47.8022 205.615 42.3975 207.269C41.9787 207.396 41.5598 207.537 41.1308 207.681C40.9863 207.73 40.8406 207.779 40.6933 207.828L40.664 207.838C37.8084 208.797 34.2495 209.993 29.347 209.867C27.0106 209.807 24.6823 209.452 22.3845 208.809L25.3142 211.743Z" fill="#1EAB66"/>
<path d="M186.961 303.752C188.643 302.068 191.371 302.065 193.049 303.747C194.728 305.428 194.726 308.16 193.044 309.845L182.027 320.88C180.345 322.564 177.618 322.566 175.939 320.885L164.942 309.869C163.263 308.188 163.265 305.456 164.947 303.772C166.629 302.087 169.356 302.085 171.035 303.766L174.658 307.395C175.795 304.787 176.409 302.139 176.48 299.513C176.568 296.112 175.755 293.686 174.893 291.114L174.892 291.111C174.674 290.453 174.455 289.795 174.261 289.161C172.173 282.26 172.143 274.418 174.208 265.867C174.77 263.549 177.097 262.12 179.41 262.679C180.201 262.861 180.907 263.275 181.443 263.811L181.43 263.824C182.452 264.847 182.938 266.359 182.571 267.872C180.873 274.91 180.843 281.228 182.494 286.641C182.621 287.061 182.762 287.48 182.906 287.91C182.955 288.055 183.004 288.201 183.053 288.348L183.062 288.377C184.02 291.238 185.214 294.802 185.088 299.713C185.029 302.053 184.674 304.385 184.032 306.687L186.961 303.752Z" fill="#1EAB66"/>
<path d="M385.311 211.743C383.629 213.428 383.627 216.159 385.305 217.841C386.984 219.523 389.712 219.52 391.393 217.836L402.41 206.801C404.092 205.116 404.095 202.385 402.416 200.703L391.418 189.688C389.739 188.006 387.012 188.008 385.33 189.693C383.648 191.377 383.646 194.109 385.325 195.791L388.948 199.42C386.344 200.558 383.7 201.173 381.079 201.245C377.683 201.333 375.261 200.519 372.694 199.655L372.691 199.654C372.033 199.435 371.376 199.216 370.743 199.022C363.853 196.93 356.024 196.901 347.487 198.969C345.173 199.532 343.746 201.863 344.304 204.18C344.486 204.972 344.9 205.679 345.435 206.215L345.447 206.203C346.469 207.227 347.978 207.713 349.488 207.346C356.516 205.645 362.823 205.615 368.227 207.269C368.646 207.396 369.065 207.537 369.494 207.681C369.639 207.73 369.784 207.779 369.932 207.828L369.961 207.838C372.817 208.797 376.376 209.993 381.278 209.867C383.614 209.807 385.943 209.452 388.24 208.809L385.311 211.743Z" fill="#1EAB66"/>
<path d="M344.339 99.9212C344.339 102.303 346.266 104.237 348.64 104.237C351.015 104.237 352.941 102.303 352.941 99.9212V84.3157C352.941 81.9334 351.015 80 348.64 80H333.087C330.713 80 328.786 81.9334 328.786 84.3157C328.786 86.6979 330.713 88.6314 333.087 88.6314H338.211C337.173 91.2807 335.738 93.5881 333.935 95.4952C331.596 97.9628 329.309 99.1022 326.884 100.31L326.881 100.312C326.262 100.622 325.643 100.933 325.058 101.244C318.709 104.644 313.152 110.169 308.576 117.678C307.337 119.715 307.974 122.373 310.004 123.616C310.692 124.048 311.483 124.255 312.24 124.255V124.238C313.685 124.238 315.096 123.513 315.905 122.183C319.673 116.003 324.111 111.515 329.101 108.857C329.487 108.65 329.882 108.453 330.288 108.251C330.424 108.183 330.562 108.115 330.701 108.045L330.728 108.031C333.425 106.687 336.785 105.012 340.163 101.451C341.773 99.754 343.169 97.8537 344.339 95.7713V99.9212Z" fill="#1EAB66"/>
</svg>
