<svg version="1.1" id="Layer_1" xmlns="http://www.w3.org/2000/svg" xmlns:xlink="http://www.w3.org/1999/xlink" x="0px" y="0px"
	width="100%" viewBox="0 0 1024 640" enable-background="new 0 0 1024 640" xml:space="preserve">
<path fill="#08305E" opacity="1.000000" stroke="none" 
	d="
M327.741241,60.687008 
	C348.550262,48.687576 369.103912,36.976982 389.490662,24.982737 
	C394.413269,22.086571 398.630829,22.152304 403.473083,24.960165 
	C444.975830,49.026268 486.546387,72.975456 528.090637,96.970016 
	C542.370483,105.217606 556.841492,113.158806 570.853577,121.839699 
	C590.205383,133.828705 592.822876,160.339920 576.240051,175.472107 
	C567.535278,183.415405 557.216919,186.919052 545.315308,183.745850 
	C543.727234,183.322449 542.092834,183.073227 540.265137,182.699448 
	C538.699341,185.054092 539.269775,187.610306 539.267151,189.989822 
	C539.217468,235.480621 539.215637,280.971466 539.218933,326.462311 
	C539.220215,343.910248 530.199219,353.067291 512.886475,353.070251 
	C435.402008,353.083527 357.917511,353.090179 280.433044,353.082336 
	C262.878540,353.080566 253.895798,344.081146 253.897507,326.686951 
	C253.901978,280.862823 253.878357,235.038696 253.866013,189.214569 
	C253.865494,187.248398 253.865952,185.282242 253.865952,183.738937 
	C251.623703,182.081650 250.026337,183.199677 248.518906,183.540131 
	C231.231323,187.444717 214.901321,179.286987 208.542511,163.478134 
	C202.031540,147.291016 207.952560,130.005920 223.577545,120.877380 
	C251.913269,104.322899 280.383514,87.998665 308.800720,71.583649 
	C315.002045,68.001488 321.216278,64.441742 327.741241,60.687008 
M398.500000,211.863907 
	C411.163269,211.860703 423.826538,211.857178 436.489807,211.854355 
	C447.825928,211.851837 450.864899,214.925308 450.878967,226.487488 
	C450.898804,242.816833 450.950043,259.146454 450.880615,275.475494 
	C450.804138,293.462067 450.690857,311.449493 450.398682,329.433411 
	C450.330170,333.651520 452.650116,333.911224 455.802032,333.901855 
	C474.963959,333.844849 494.126160,333.879944 513.288086,333.825745 
	C519.358887,333.808563 519.954285,333.100250 519.954590,326.711456 
	C519.956970,277.223389 519.862305,227.734879 520.086731,178.247833 
	C520.111328,172.814072 518.282776,169.843674 513.708679,167.227386 
	C476.112457,145.723160 438.614685,124.046318 401.148987,102.315079 
	C397.894653,100.427475 395.313599,100.296478 391.977295,102.234047 
	C353.805450,124.402565 315.569092,146.460251 277.292603,168.447708 
	C274.168488,170.242310 272.867737,172.390976 272.868622,176.014023 
	C272.881165,226.667221 272.789703,277.320465 272.686737,327.973602 
	C272.679016,331.778564 273.969940,333.918640 278.179108,333.900177 
	C298.007294,333.813171 317.836090,333.811707 337.664429,333.864594 
	C340.876831,333.873138 342.142395,332.545135 342.097687,329.376526 
	C342.003693,322.713013 342.108490,316.046906 342.102966,309.381866 
	C342.079712,281.388611 342.010864,253.395325 342.034363,225.402115 
	C342.042847,215.311127 345.578003,211.842209 355.510071,211.839813 
	C369.506714,211.836456 383.503357,211.854156 398.500000,211.863907 
M388.914368,82.367943 
	C393.585938,78.866508 398.210205,78.876572 403.298889,81.830139 
	C436.145813,100.895073 469.059662,119.844803 501.968536,138.802856 
	C516.688904,147.282898 531.411316,155.760696 546.209473,164.103577 
	C551.756165,167.230667 557.235168,166.091034 562.209045,162.611603 
	C567.075012,159.207672 568.473450,154.166275 567.862854,148.510727 
	C567.226440,142.616333 563.362976,139.099152 558.539368,136.327393 
	C544.239929,128.110641 529.955750,119.867264 515.671326,111.624336 
	C478.156555,89.976143 440.591431,68.414101 403.196228,46.561275 
	C398.250610,43.671173 394.618866,43.776852 389.705017,46.643551 
	C350.139465,69.725685 310.402130,92.513306 270.721924,115.398949 
	C257.879913,122.805603 244.987305,130.127853 232.246185,137.704529 
	C226.434219,141.160675 223.695053,147.709991 225.024185,153.417938 
	C227.473923,163.938446 237.454132,168.947769 247.008881,163.883698 
	C258.041016,158.036575 268.765167,151.605530 279.589844,145.370422 
	C315.821320,124.500816 352.037933,103.605492 388.914368,82.367943 
M431.829926,329.178253 
	C431.826385,298.196564 431.809814,267.214874 431.838684,236.233185 
	C431.841705,233.009445 431.865967,230.324173 427.300659,230.354538 
	C406.813660,230.490845 386.325134,230.446320 365.837402,230.381866 
	C362.714539,230.372040 361.284668,231.471695 361.287689,234.735550 
	C361.317017,266.383362 361.290894,298.031281 361.220184,329.679047 
	C361.213623,332.612396 362.296906,333.910797 365.313782,333.901093 
	C386.134521,333.834015 406.955566,333.831451 427.776489,333.849426 
	C430.402679,333.851715 431.933624,332.917236 431.829926,329.178253 
z"/>
<path fill="#08305E" opacity="1.000000" stroke="none" 
	d="
M404.208313,437.103516 
	C512.230347,383.113159 617.295837,324.941681 712.877380,252.271866 
	C713.072815,249.163086 711.523376,248.153641 710.534485,246.905991 
	C706.188782,241.423111 701.575623,236.144394 697.390320,230.544312 
	C692.557312,224.077438 695.530823,216.272675 703.411560,214.966736 
	C727.019531,211.054626 750.677246,207.444092 774.294617,203.587555 
	C790.378540,200.961151 806.427307,198.120300 822.491211,195.371567 
	C823.311157,195.231247 824.126526,195.062683 824.941528,194.895081 
	C838.176270,192.173615 842.336853,200.896057 838.146118,211.395721 
	C823.400024,248.341354 809.697571,285.703522 795.598572,322.907440 
	C795.185608,323.997070 794.813171,325.105011 794.342407,326.169342 
	C790.880981,333.995697 783.264160,335.289154 777.639221,328.837769 
	C773.262390,323.817871 769.035400,318.650635 765.022400,313.336945 
	C762.892456,310.516602 761.172852,310.015350 758.065735,312.068695 
	C708.097412,345.090942 655.655029,373.783081 602.019531,400.296936 
	C548.104065,426.949158 493.205475,451.386688 436.556641,471.755310 
	C403.793488,483.535614 370.640564,493.956146 336.673279,501.723267 
	C318.480896,505.883270 300.067230,508.593567 281.568695,510.850586 
	C276.258728,511.498444 271.654327,508.568115 270.482727,503.734467 
	C269.263153,498.702911 271.616333,494.468719 277.040588,492.427856 
	C297.924072,484.570526 318.647095,476.330566 339.076294,467.341919 
	C360.877808,457.749481 382.442810,447.658203 404.208313,437.103516 
M738.794983,302.279266 
	C744.622437,298.409119 750.437134,294.519501 756.280762,290.673981 
	C763.232788,286.099060 767.261780,286.751892 772.665405,293.094666 
	C775.639526,296.585632 778.115356,300.547546 782.692810,304.181427 
	C793.846802,274.705383 804.769836,245.839462 816.203552,215.624252 
	C784.017761,220.884857 753.526855,225.868423 722.079468,231.008347 
	C726.014343,235.874863 729.268860,239.836746 732.454407,243.853394 
	C738.275696,251.193542 737.754761,255.767700 730.575317,261.654938 
	C703.231445,284.077209 674.277771,304.275940 644.589539,323.414581 
	C569.478394,371.835388 491.571136,415.304474 411.279785,454.517700 
	C400.702545,459.683502 390.091949,464.780945 379.401154,469.956390 
	C380.237579,470.819366 380.872955,470.425140 381.472351,470.232452 
	C413.336945,459.989014 444.809479,448.687714 475.880707,436.211487 
	C517.319702,419.572205 557.931641,401.120697 597.890259,381.239349 
	C645.926147,357.339142 692.995483,331.674927 738.794983,302.279266 
z"/>
<path fill="#08305E" opacity="1.000000" stroke="none" 
	d="
M756.018677,435.000000 
	C756.031616,493.656616 756.049866,551.813232 756.038940,609.969849 
	C756.038513,612.290649 756.036987,614.670044 755.558167,616.920532 
	C754.418213,622.279175 751.226074,625.186096 745.803711,625.213745 
	C723.142151,625.329102 700.478943,625.330688 677.817810,625.163940 
	C671.434692,625.117004 668.142334,621.504089 667.959534,614.990601 
	C667.791199,608.996216 667.901428,602.993713 667.901001,596.994812 
	C667.896118,529.506470 667.943359,462.018036 667.812927,394.529938 
	C667.799927,387.815796 669.949219,383.378601 676.103882,380.074280 
	C697.386719,368.648193 718.421936,356.733917 738.721924,343.636871 
	C749.099121,336.941803 756.210266,344.593353 756.130127,353.515015 
	C755.887878,380.508148 756.027832,407.504761 756.018677,435.000000 
M736.794617,472.500000 
	C736.794617,437.787811 736.794617,403.075623 736.794617,368.339539 
	C733.805664,368.206238 732.270813,369.676544 730.599915,370.629730 
	C717.585022,378.054047 704.687622,385.686890 691.602905,392.984619 
	C688.068848,394.955719 686.834167,397.308411 686.849365,401.312073 
	C686.986755,437.621368 686.950928,473.931427 686.919312,510.241211 
	C686.892517,541.052795 686.874756,571.864807 686.652893,602.675232 
	C686.625488,606.476746 688.454956,606.671875 691.235779,606.666687 
	C704.227234,606.642639 717.218811,606.687073 730.210388,606.693726 
	C736.751953,606.697083 736.774353,606.684326 736.776245,599.918274 
	C736.788147,557.778870 736.789246,515.639404 736.794617,472.500000 
z"/>
<path fill="#08305E" opacity="1.000000" stroke="none" 
	d="
M648.287903,414.156921 
	C648.294250,480.411682 648.301575,546.188660 648.305969,611.965698 
	C648.306702,622.472656 645.536194,625.280212 634.991089,625.291077 
	C614.342102,625.312317 593.693054,625.323364 573.044250,625.260681 
	C563.795044,625.232605 560.763855,622.135010 560.760864,612.951294 
	C560.743042,557.831787 560.833191,502.711975 560.612244,447.593353 
	C560.584656,440.717468 563.271973,436.979889 569.272095,434.120361 
	C590.609985,423.951233 611.735962,413.338593 633.013123,403.040527 
	C641.916870,398.731110 648.041931,402.721771 648.285461,412.679901 
	C648.293579,413.012817 648.287415,413.346100 648.287903,414.156921 
M609.499329,606.675964 
	C614.161133,606.673645 618.840454,606.418030 623.479736,606.739929 
	C628.160461,607.064758 629.844788,605.565674 629.832153,600.622986 
	C629.689880,544.848694 629.765808,489.073883 629.738586,433.299194 
	C629.737549,431.216125 630.245972,428.997833 628.871399,426.846436 
	C628.229431,426.969543 627.548279,426.960815 626.999146,427.225800 
	C612.011841,434.457550 597.060181,441.763641 582.039856,448.925781 
	C579.571411,450.102814 579.299927,451.935120 579.300537,454.207977 
	C579.314453,503.489471 579.334045,552.770996 579.259521,602.052368 
	C579.254150,605.597595 580.693481,606.708069 584.026062,606.664551 
	C592.182434,606.557800 600.341614,606.658997 609.499329,606.675964 
z"/>
<path fill="#08305E" opacity="1.000000" stroke="none" 
	d="
M522.973022,625.321167 
	C503.646973,625.312744 484.815918,625.332764 465.985107,625.282593 
	C456.878571,625.258301 453.409912,622.111145 453.368286,613.102966 
	C453.181244,572.610352 453.170715,532.116943 453.055206,491.624023 
	C453.037262,485.335602 455.872314,481.358765 461.808960,479.173553 
	C483.850250,471.060455 505.593964,462.199707 527.162354,452.900696 
	C534.777405,449.617523 541.098022,454.074799 541.129883,462.792419 
	C541.214478,485.955841 541.157166,509.119781 541.158386,532.283508 
	C541.159729,558.446899 541.161682,584.610229 541.166870,610.773621 
	C541.169312,622.872559 538.718811,625.301697 526.468079,625.320557 
	C525.468079,625.322083 524.468140,625.320740 522.973022,625.321167 
M522.658325,537.500061 
	C522.658325,517.088013 522.658325,496.675995 522.658325,476.179291 
	C521.503235,476.179291 520.969727,476.035736 520.559448,476.200043 
	C505.426819,482.259918 490.318542,488.380951 475.170929,494.402985 
	C472.431274,495.492218 472.158356,497.531281 472.159882,500.012573 
	C472.180695,533.802673 472.221069,567.592957 472.079224,601.382507 
	C472.061401,605.627014 473.643616,606.768188 477.636871,606.713196 
	C490.784180,606.532166 503.938354,606.492737 517.083862,606.731506 
	C521.547852,606.812622 522.763062,605.198242 522.727783,600.919617 
	C522.556030,580.114380 522.654846,559.306824 522.658325,537.500061 
z"/>
<path fill="#08305E" opacity="1.000000" stroke="none" 
	d="
M419.391022,494.238037 
	C428.644348,491.844452 433.989014,495.461761 434.027283,504.564117 
	C434.181366,541.223389 434.144287,577.884033 434.002716,614.543518 
	C433.974945,621.732849 430.170471,625.160950 422.958527,625.183838 
	C401.795807,625.250916 380.632812,625.225525 359.469910,625.210754 
	C349.377686,625.203735 345.922516,621.788391 345.918152,611.791931 
	C345.907745,587.962891 345.931183,564.133850 345.939972,540.304810 
	C345.941803,535.305725 345.850647,530.304688 345.959717,525.307983 
	C346.121338,517.903015 348.706696,514.774292 355.778595,512.942505 
	C377.055939,507.431274 398.182068,501.402008 419.391022,494.238037 
M395.097931,521.722107 
	C386.761536,524.009521 378.456848,526.423523 370.073334,528.522766 
	C366.664917,529.376221 365.081818,530.813293 365.106873,534.596436 
	C365.254822,556.903564 365.246368,579.212524 365.119171,601.519897 
	C365.097107,605.382080 366.322662,606.785400 370.282440,606.728760 
	C383.264923,606.543030 396.255432,606.503662 409.235291,606.772888 
	C413.641815,606.864319 414.986176,605.465393 414.958954,601.097046 
	C414.792755,574.461426 414.877167,547.824402 414.836945,521.187866 
	C414.834564,519.614197 415.329834,517.798218 413.089050,516.297974 
	C407.580200,517.944092 401.719818,519.695251 395.097931,521.722107 
z"/>
</svg>