<?xml version="1.0" encoding="UTF-8"?>
<svg width="80px" height="80px" viewBox="0 0 80 80" version="1.1" xmlns="http://www.w3.org/2000/svg" xmlns:xlink="http://www.w3.org/1999/xlink">
    <title>VMC - Ventilation Mécanique Contrôlée</title>
    <g id="VMC" stroke="none" stroke-width="1" fill="none" fill-rule="evenodd">
        <!-- House Structure -->
        <path d="M10,40 L40,15 L70,40 L70,70 L10,70 Z" fill="#E8F0FE" stroke="#333333" stroke-width="2"/>
        <!-- Roof -->
        <path d="M5,40 L40,10 L75,40" stroke="#333333" stroke-width="3" stroke-linecap="round"/>
        <!-- Window -->
        <rect x="25" y="45" width="15" height="15" fill="#A5D8FF" stroke="#333333" stroke-width="1.5"/>
        <!-- Window Divider -->
        <line x1="32.5" y1="45" x2="32.5" y2="60" stroke="#333333" stroke-width="1"/>
        <line x1="25" y1="52.5" x2="40" y2="52.5" stroke="#333333" stroke-width="1"/>
        <!-- Door -->
        <rect x="50" y="50" width="12" height="20" fill="#D2A979" stroke="#333333" stroke-width="1.5"/>
        <circle cx="59" cy="60" r="1" fill="#333333"/>
        <!-- VMC Unit on Wall -->
        <rect x="20" y="25" width="25" height="12" rx="2" fill="#DADADA" stroke="#333333" stroke-width="1.5"/>
        <!-- VMC Vents -->
        <rect x="23" y="28" width="19" height="6" rx="1" fill="#888888" stroke="#333333" stroke-width="1"/>
        <!-- Air Flow Indicators -->
        <path d="M15,30 C18,27 22,31 25,28" stroke="#4DA1FF" stroke-width="1.5" stroke-linecap="round"/>
        <path d="M15,33 C18,30 22,34 25,31" stroke="#4DA1FF" stroke-width="1.5" stroke-linecap="round"/>
        <!-- Fan Symbol -->
        <circle cx="50" cy="31" r="5" fill="#FFFFFF" stroke="#333333" stroke-width="1"/>
        <path d="M50,28 L50,34" stroke="#333333" stroke-width="1.5" stroke-linecap="round"/>
        <path d="M47,31 L53,31" stroke="#333333" stroke-width="1.5" stroke-linecap="round"/>
        <path d="M48,29 L52,33" stroke="#333333" stroke-width="1.5" stroke-linecap="round"/>
        <path d="M48,33 L52,29" stroke="#333333" stroke-width="1.5" stroke-linecap="round"/>
    </g>
</svg> 